<svg width="512" height="110" viewBox="0 0 512 110" fill="none" xmlns="http://www.w3.org/2000/svg">
<path d="M109.826 52.8634C109.826 52.8634 97.0247 43.6695 94.4749 39.2054C91.9252 34.7413 90.4086 19.0173 90.4086 19.0173C75.7594 -6.3391 39.1959 -6.3391 24.6062 19.0173C24.6062 19.0173 23.0897 34.7413 20.5399 39.2054C17.9902 43.6695 5.13572 52.8634 5.13572 52.8634C-9.45392 78.273 8.77154 110 38.0104 110C38.0104 110 52.3285 103.636 57.4876 103.636C62.6466 103.636 76.9647 110 76.9647 110C106.204 110 124.489 78.273 109.839 52.8634H109.826ZM57.4743 90.7353C40.931 90.7353 27.5268 77.2964 27.5268 60.6956C27.5268 44.0947 40.9244 30.6558 57.4743 30.6558C74.0243 30.6558 87.4218 44.0947 87.4218 60.6956C87.4218 77.2964 74.0243 90.7353 57.4743 90.7353Z" fill="url(#paint0_linear_522_1900)"/>
<path d="M188.397 24.508V41.38H171.481V88H150.391V41.38H133.474V24.508H188.397Z" fill="#3A3A3A"/>
<path d="M248.363 24.508V88H227.273V64.8676H212.177V88H191.087V24.508H212.177V47.7736H227.273V24.508H248.363Z" fill="#3A3A3A"/>
<path d="M252.397 24.508H297.729V41.38H273.487V48.6172H295.287V63.9352H273.487V71.128H298.395V88H252.397V24.508Z" fill="#3A3A3A"/>
<path d="M367.116 24.508V88H346.026V64.8676H330.93V88H309.84V24.508H330.93V47.7736H346.026V24.508H367.116Z" fill="#3A3A3A"/>
<path d="M370.716 63.58V24.508H391.806V61.138C391.806 69.7294 394.293 72.238 399.354 72.238C404.416 72.238 406.902 69.7294 406.902 61.138V24.508H427.992V63.58C427.992 80.7406 415.716 89.332 399.354 89.332C382.993 89.332 370.716 80.7406 370.716 63.58Z" fill="#3A3A3A"/>
<path d="M431.593 24.508H464.693C479.811 24.508 488.18 29.4586 488.18 40.0036C488.18 48.6616 482.542 54.145 474.772 55.033C483.962 55.8766 490.867 61.9594 490.867 70.8616C490.867 81.9616 480.144 88 464.271 88H431.593V24.508ZM461.785 49.372C465.203 49.372 467.312 47.8846 467.312 44.3992C467.312 40.9804 465.27 39.604 461.785 39.604H452.683V49.372H461.785ZM452.683 72.904H463.783C467.557 72.904 469.688 71.4388 469.688 67.8202C469.688 64.1794 467.534 62.692 463.783 62.692H452.683V72.904Z" fill="#3A3A3A"/>
<path d="M511.173 70.24V88H493.857V70.24H511.173Z" fill="#3A3A3A"/>
<path d="M494 70H512V88H494V70Z" fill="#1AB3F4"/>
<defs>
<linearGradient id="paint0_linear_522_1900" x1="255.945" y1="-0.00166075" x2="255.945" y2="110" gradientUnits="userSpaceOnUse">
<stop stop-color="#19D8F3"/>
<stop offset="1" stop-color="#197FF3"/>
</linearGradient>
</defs>
</svg>
