<svg width="1313" height="542" viewBox="0 0 1313 542" fill="none" xmlns="http://www.w3.org/2000/svg">
<path d="M1298.09 461.32L1245.71 409.11H1312.96V383.48H1182.17L1261.5 462.53L1182.5 540.59C1193.71 540.59 1218.56 540.64 1218.56 540.64C1218.56 540.64 1270.45 489.07 1295.25 464.4C1296.08 463.56 1296.86 462.65 1298.09 461.32Z" fill="white"/>
<path d="M219.731 400.86C202.571 415.4 192.151 433.72 190.731 456.23C188.831 486.63 201.561 510.34 227.171 528.48L214.111 540.3H324.711L312.161 528.3C357.161 497.59 356.721 442.3 329.861 411.4C298.701 375.48 248.841 376.17 219.731 400.86ZM269.911 514.17C240.911 514.46 217.121 491.17 216.981 462.4C216.851 432.96 239.701 409.88 269.191 409.66C276.106 409.529 282.977 410.773 289.408 413.317C295.838 415.862 301.7 419.658 306.652 424.484C311.605 429.311 315.551 435.073 318.26 441.435C320.97 447.798 322.389 454.635 322.437 461.551C322.485 468.466 321.159 475.322 318.538 481.722C315.916 488.121 312.05 493.937 307.165 498.831C302.279 503.726 296.47 507.602 290.076 510.235C283.681 512.868 276.827 514.205 269.911 514.17V514.17Z" fill="white"/>
<path d="M405.582 405.17C390.222 420.51 381.481 438.7 381.161 460.28C380.741 489.06 393.441 511.44 417.471 528.23L404.902 540.36H515.902L502.601 528.42C547.811 498.8 549.081 439.58 516.431 406.9C484.501 374.88 434.102 376.67 405.582 405.17ZM460.061 514.17C431.061 514.17 407.472 490.73 407.522 461.94C407.47 451.55 410.503 441.378 416.238 432.713C421.972 424.048 430.148 417.28 439.732 413.265C449.316 409.251 459.875 408.172 470.073 410.164C480.271 412.155 489.648 417.129 497.017 424.454C504.386 431.78 509.415 441.127 511.467 451.313C513.519 461.499 512.502 472.065 508.545 481.672C504.587 491.279 497.867 499.496 489.237 505.281C480.606 511.066 470.452 514.16 460.061 514.17V514.17Z" fill="white"/>
<path d="M1029.64 410.68H1082.13V541.54H1108.5V410.72H1160.59V384.77H1029.59L1029.64 410.68Z" fill="white"/>
<path d="M1281.7 514.49L1255.9 540.38H1312.98V514.32L1281.7 514.49Z" fill="white"/>
<path d="M132.032 447.76L79.6216 499.99C78.3716 498.82 77.4716 497.99 76.6216 497.2C51.9016 472.453 27.1683 447.713 2.42161 422.98C1.60626 422.227 0.967388 421.303 0.550756 420.275C0.134123 419.246 -0.049976 418.138 0.0116016 417.03C0.131602 406.39 0.0615894 395.76 0.0615894 383.93L79.1116 462.57L157.752 384.17V540.99H132.032V447.76Z" fill="white"/>
<path d="M879.812 505.86C860.262 534.86 825.501 547.48 791.812 538.19C761.812 529.93 737.912 500.02 735.562 469.51C734.143 452.758 738.106 435.991 746.874 421.646C755.641 407.301 768.756 396.128 784.312 389.75C815.732 376.94 849.792 386.25 869.312 406.75C863.312 412.91 857.311 419.06 851.591 424.96C846.191 420.76 841.731 417.66 836.261 415.19C801.841 399.62 766.631 422.91 762.261 454.73C758.261 484.28 777.191 510.14 806.801 514.34C823.611 516.72 838.581 511.95 850.801 499.98C853.041 497.79 854.801 497.45 857.611 498.45C864.881 501.09 872.242 503.37 879.812 505.86Z" fill="white"/>
<path d="M571.652 384.03C571.652 384.03 586.212 396.88 593.042 403.03C628.862 435.21 664.695 467.373 700.542 499.52C701.351 500.187 701.997 501.03 702.431 501.985C702.864 502.94 703.073 503.982 703.042 505.03C702.912 516.81 702.982 528.59 702.982 541.28C667.772 509.74 633.112 478.7 597.882 447.13V541.08H574.532C574.145 541.094 573.76 541.028 573.401 540.886C573.041 540.744 572.715 540.529 572.442 540.255C572.17 539.981 571.957 539.653 571.818 539.292C571.678 538.932 571.615 538.546 571.632 538.16C571.632 536.78 571.652 384.03 571.652 384.03Z" fill="white"/>
<path d="M676.602 384.02H702.712V462.17C702.712 462.17 685.712 447.17 678.342 440.46C677.37 439.588 676.754 438.388 676.612 437.09C676.502 419.75 676.602 384.02 676.602 384.02Z" fill="white"/>
<path d="M814.321 475.81V449.99H879.211C878.7 450.723 878.149 451.427 877.561 452.1C870.155 459.433 862.721 466.767 855.261 474.1C854.54 474.935 853.556 475.499 852.471 475.7C839.871 475.84 827.271 475.81 814.321 475.81Z" fill="white"/>
<path d="M968.902 383.45L890.162 540.57H916.342C917.319 540.658 918.299 540.432 919.139 539.925C919.978 539.418 920.635 538.656 921.012 537.75C921.882 535.99 968.902 442.35 968.902 442.35C969.722 443.97 1015.9 535.99 1016.79 537.75C1017.17 538.656 1017.82 539.418 1018.66 539.925C1019.5 540.432 1020.48 540.658 1021.46 540.57H1047.64L968.902 383.45Z" fill="white"/>
<path d="M815.441 143.51C807.161 62.63 740.442 2.06 658.442 0H654.442C572.442 2.06 505.762 62.63 497.442 143.51C489.062 225.29 541.722 287.51 596.442 307.99C594.872 305.69 593.782 303.99 592.602 302.4C562.502 261.24 579.852 200.9 627.502 182.46C634.382 179.79 641.182 178.84 646.502 180.99C652.342 183.37 656.502 189.17 656.502 189.17C656.622 189 660.662 183.42 666.562 181.04C671.862 178.89 678.662 179.84 685.562 182.51C733.172 200.95 750.562 261.29 720.312 302.45C719.132 304.06 718.042 305.74 716.472 308.04C771.162 287.55 823.821 225.29 815.441 143.51ZM656.622 176.35C643.622 176.35 627.392 179.96 627.392 179.96L656.852 166.17L686.122 180.01C686.122 180.01 669.602 176.35 656.622 176.35Z" fill="#45BFB0"/>
</svg>
